# Blender v2.79 (sub 0) OBJ File: 'large_round_rock.blend'
# www.blender.org
mtllib large_round_rock.mtl
o Cube
v 7.241797 -6.143480 -6.152935
v 8.194028 -5.726881 9.783197
v -6.164327 -5.706553 9.783196
v -7.219709 -4.389818 -7.219741
v 7.241801 5.405523 -5.560927
v 9.061382 6.001604 5.726101
v -7.167809 6.001604 5.726095
v -7.661566 6.435776 -7.219740
v 9.061386 -6.143480 -0.213418
v -7.167804 -6.143480 -0.213420
v 9.061386 8.077069 -0.213415
v -7.167807 6.001604 -0.213419
v -1.679567 -4.831445 -7.219741
v 0.036995 -6.143480 9.783196
v -1.679566 7.313639 -7.219738
v 0.036992 8.077069 5.726098
v 0.036995 8.077069 -0.213417
v 0.036996 -8.393129 -0.213419
v 3.639396 8.077069 -0.213416
v 1.922833 -4.831445 -7.219740
v 3.639396 -6.143480 9.783197
v 3.639400 6.001604 -6.152932
v 3.639392 8.077069 5.726100
v 3.639397 -8.393129 -0.213419
v -5.281967 -4.831445 -7.219741
v -3.565405 -6.143480 9.783196
v -5.281968 7.313639 -7.219739
v -3.565408 8.077069 5.726097
v -3.565404 -8.393129 -0.213420
v -3.565405 8.077069 -0.213418
v -7.167803 -6.143480 -3.183178
v -7.167805 6.001604 -3.183177
v 9.061386 -6.143480 -3.183176
v 7.241799 6.001604 -3.183173
v 0.036997 -8.393129 -3.183177
v 0.036997 8.077069 -3.183175
v 3.639398 8.077069 -3.183174
v 3.639397 -8.393129 -3.183177
v -3.565403 -8.393129 -3.183177
v -3.565404 8.077069 -3.183176
v 9.061386 -6.143480 2.756340
v 9.061384 8.077069 2.756343
v -7.167805 -6.143480 2.756338
v -7.167807 6.001604 2.756338
v 0.036994 8.077069 2.756341
v 0.036996 -8.393129 2.756339
v 3.639396 -8.393129 2.756340
v 3.639394 8.077069 2.756342
v -3.565407 8.077069 2.756340
v -3.565404 -8.393129 2.756338
v 7.241799 -0.070938 -6.152933
v 9.061384 -0.070938 5.726099
v -7.167807 -0.070938 5.726096
v -8.884367 1.241097 -7.219741
v -9.651422 -0.070938 -0.213420
v 11.270383 -0.070938 -0.213417
v -1.679567 1.241097 -8.893848
v 0.036994 -0.070938 11.137032
v 3.639394 -0.070938 11.137032
v 3.639399 -0.070938 -6.152934
v -5.281967 1.241097 -8.893849
v -3.565407 -0.070938 11.137031
v 9.061387 -0.070938 -3.183175
v -9.651421 -0.070938 -3.183177
v -9.651422 -0.070938 2.756338
v 11.270383 -0.070938 2.756341
v 7.241800 2.965333 -6.152932
v 9.061384 2.965333 5.726100
v -7.167808 2.965333 5.726096
v -8.884367 4.277369 -7.219740
v -1.679566 4.277369 -8.893848
v 3.639399 2.965333 -6.152933
v -5.281967 4.277369 -8.893849
v -9.651422 2.965333 -0.213419
v 9.061386 2.965333 -0.213416
v 0.036993 2.965333 11.137032
v 3.639393 2.965333 11.137033
v -3.565408 2.965333 11.137031
v 7.241799 2.965333 -3.183174
v -9.651421 2.965333 -3.183177
v -9.651423 2.965333 2.756338
v 9.061385 2.965333 2.756342
v -9.651421 -3.107210 -0.213420
v 11.270383 -3.107210 -0.213417
v 0.036994 -3.107210 11.137031
v 3.639395 -3.107210 11.137032
v -3.565406 -3.107210 11.137031
v 9.061387 -3.107210 -3.183176
v -9.651421 -3.107210 -3.183177
v -9.651422 -3.107210 2.756338
v 11.270383 -3.107210 2.756341
v 7.241798 -3.107210 -6.152934
v 9.061386 -3.107210 9.783198
v -7.167807 -3.107210 9.783196
v -8.884366 -1.795174 -7.219741
v -1.679567 -1.795174 -8.893849
v 1.922833 -1.795174 -7.219740
v -5.281967 -1.795174 -8.893850
vn -0.3895 -0.8991 0.1997
vn -0.4992 0.8665 -0.0000
vn 1.0000 0.0000 0.0000
vn -0.6175 0.4352 0.6553
vn -0.8101 0.5780 0.0976
vn -0.2964 -0.3516 -0.8880
vn -0.7740 0.6331 -0.0000
vn 0.8527 0.0000 -0.5224
vn -0.5297 -0.8482 -0.0000
vn 0.0000 -1.0000 0.0000
vn 0.0000 1.0000 0.0000
vn 0.2186 -0.2593 -0.9407
vn -0.0000 0.7269 0.6867
vn -0.0000 -0.9524 0.3049
vn 0.2532 -0.9475 0.1954
vn 0.1778 0.9290 0.3246
vn 0.4624 0.4905 0.7386
vn 0.1967 0.0000 -0.9805
vn 0.2074 0.9020 -0.3787
vn 0.3832 -0.9237 -0.0000
vn 0.0000 -0.4828 -0.8757
vn 0.0000 0.9826 -0.1858
vn 0.0000 -0.7498 -0.6616
vn 0.1244 -0.8577 -0.4988
vn 0.3457 0.8394 -0.4194
vn 0.1804 0.8954 -0.4070
vn -0.3914 -0.8056 -0.4447
vn -0.4411 0.8935 0.0843
vn -0.8632 0.3530 0.3609
vn -0.8584 0.2850 0.4265
vn -1.0000 0.0000 -0.0000
vn 0.0000 -0.0000 1.0000
vn 0.0000 -0.0000 -1.0000
vn 0.4605 0.4931 0.7381
vn 0.4581 0.0000 -0.8889
vn 0.8024 0.0000 -0.5968
vn -0.4214 0.0000 -0.9069
vn -0.9824 -0.0000 -0.1867
vn -0.6154 0.4379 0.6554
vn 0.8830 0.2607 0.3903
vn -0.2999 0.3558 -0.8851
vn 0.3798 0.2459 -0.8918
vn 0.0902 0.1070 -0.9902
vn 0.0000 0.4828 -0.8757
vn 0.8086 0.5883 0.0000
vn -0.7671 0.0000 0.6415
vn 0.9192 0.2754 -0.2816
vn 0.7064 -0.0000 0.7078
vn 0.7254 0.4813 -0.4920
vn -0.8324 -0.0000 0.5542
vn 0.8871 0.3227 0.3299
vn 0.8603 -0.4679 0.2022
vn -0.2235 -0.2651 0.9380
vn -0.7719 -0.5686 -0.2843
vn -0.7740 -0.6331 -0.0000
vn 0.8871 -0.3227 -0.3299
vn -0.0000 -0.4072 0.9133
vn 0.1404 -0.2508 0.9578
vn -0.8292 -0.5131 0.2217
vn 0.8086 -0.5883 0.0000
vn 0.1413 0.1677 -0.9757
vn 0.4478 0.0387 -0.8933
usemtl Material
s off
f 50//1 26//1 3//1 43//1
f 49//2 44//2 7//2 28//2
f 82//3 42//3 6//3 68//3
f 78//4 28//4 7//4 69//4
f 80//5 32//5 8//5 70//5
f 98//6 25//6 4//6 95//6
f 81//7 44//7 12//7 74//7
f 79//8 34//8 11//8 75//8
f 40//2 32//2 12//2 30//2
f 39//9 29//9 10//9 31//9
f 38//10 24//10 18//10 35//10
f 37//11 36//11 17//11 19//11
f 97//12 20//12 13//12 96//12
f 77//13 23//13 16//13 76//13
f 48//11 45//11 16//11 23//11
f 47//14 21//14 14//14 46//14
f 41//15 2//15 21//15 47//15
f 42//16 48//16 23//16 6//16
f 68//17 6//17 23//17 77//17
f 92//18 1//18 20//18 97//18
f 34//19 37//19 19//19 11//19
f 33//20 9//20 24//20 38//20
f 35//10 18//10 29//10 39//10
f 36//11 40//11 30//11 17//11
f 96//21 13//21 25//21 98//21
f 76//13 16//13 28//13 78//13
f 45//11 49//11 28//11 16//11
f 46//14 14//14 26//14 50//14
f 15//22 27//22 40//22 36//22
f 13//23 35//23 39//23 25//23
f 1//24 33//24 38//24 20//24
f 5//25 22//25 37//25 34//25
f 22//26 15//26 36//26 37//26
f 20//23 38//23 35//23 13//23
f 25//27 39//27 31//27 4//27
f 27//28 8//28 32//28 40//28
f 67//3 5//3 34//3 79//3
f 74//7 12//7 32//7 80//7
f 18//10 46//10 50//10 29//10
f 17//11 30//11 49//11 45//11
f 11//11 19//11 48//11 42//11
f 9//20 41//20 47//20 24//20
f 24//10 47//10 46//10 18//10
f 19//11 17//11 45//11 48//11
f 69//29 7//29 44//29 81//29
f 75//3 11//3 42//3 82//3
f 30//2 12//2 44//2 49//2
f 29//9 50//9 43//9 10//9
f 84//3 56//3 66//3 91//3
f 94//30 53//30 65//30 90//30
f 83//31 55//31 64//31 89//31
f 92//8 51//8 63//8 88//8
f 85//32 58//32 62//32 87//32
f 71//33 57//33 61//33 73//33
f 67//33 51//33 60//33 72//33
f 93//34 52//34 59//34 86//34
f 86//32 59//32 58//32 85//32
f 72//35 60//35 57//35 71//35
f 88//36 63//36 56//36 84//36
f 90//31 65//31 55//31 83//31
f 73//37 61//37 54//37 70//37
f 89//38 64//38 54//38 95//38
f 87//39 62//39 53//39 94//39
f 91//40 66//40 52//40 93//40
f 27//41 73//41 70//41 8//41
f 22//42 72//42 71//42 15//42
f 5//43 67//43 72//43 22//43
f 15//44 71//44 73//44 27//44
f 56//45 75//45 82//45 66//45
f 53//46 69//46 81//46 65//46
f 55//31 74//31 80//31 64//31
f 51//47 67//47 79//47 63//47
f 58//32 76//32 78//32 62//32
f 52//48 68//48 77//48 59//48
f 59//32 77//32 76//32 58//32
f 63//49 79//49 75//49 56//49
f 65//31 81//31 74//31 55//31
f 64//38 80//38 70//38 54//38
f 62//50 78//50 69//50 53//50
f 66//51 82//51 68//51 52//51
f 41//52 91//52 93//52 2//52
f 26//53 87//53 94//53 3//53
f 31//54 89//54 95//54 4//54
f 43//55 90//55 83//55 10//55
f 33//56 88//56 84//56 9//56
f 21//57 86//57 85//57 14//57
f 2//58 93//58 86//58 21//58
f 14//57 85//57 87//57 26//57
f 1//8 92//8 88//8 33//8
f 10//55 83//55 89//55 31//55
f 3//59 94//59 90//59 43//59
f 9//60 84//60 91//60 41//60
f 57//33 96//33 98//33 61//33
f 51//61 92//61 97//61 60//61
f 60//62 97//62 96//62 57//62
f 61//37 98//37 95//37 54//37
