# Blender v2.79 (sub 0) OBJ File: 'round_rock.blend'
# www.blender.org
mtllib round_rock.mtl
o Cube
v 4.519939 -0.450237 -0.458050
v 4.519939 -1.000000 4.415254
v -1.447966 -1.165905 4.135233
v -1.000000 -0.678817 -0.385713
v 4.074226 2.489701 -0.598397
v 4.307319 2.474329 4.119523
v -0.583015 2.559687 4.020810
v -0.493388 3.233770 -0.513092
v 1.759970 -1.000000 0.021105
v 1.759970 -1.000000 5.353558
v 1.759970 3.233770 -1.000000
v 1.759969 2.734836 4.415254
v 5.716350 -1.663758 2.199338
v -1.895957 -1.176197 2.333882
v 4.770757 2.308510 1.435900
v -1.195744 3.233770 1.707627
v 1.759970 1.834195 1.707627
v 1.735297 -2.024009 1.369158
v 4.804440 -1.663758 3.553151
v 5.277399 2.734836 2.160839
v 1.759969 1.834195 3.061440
v -1.751184 -1.557930 3.673355
v -0.697532 2.752710 3.428695
v 1.735297 -2.024009 2.722971
v -1.592739 -1.011825 0.671869
v -1.000000 3.233770 0.353813
v 1.759970 -1.000000 0.353813
v 5.431849 -1.000000 0.353813
v 4.519939 2.734836 0.353814
v 1.759970 3.233770 0.353814
v 5.005748 0.867418 -1.000000
v 5.005748 0.867418 4.415254
v -1.447966 0.473859 4.718969
v -1.000000 0.867418 -1.000000
v 1.759970 0.867418 0.021105
v 1.759969 0.867418 6.222040
v -1.152987 0.691222 2.333882
v 6.202158 0.203660 2.199338
v -1.751184 0.309488 3.673355
v 5.290249 0.203660 3.553151
v 5.917657 0.867418 0.353814
v -0.849768 0.855593 0.671869
v 0.379985 -1.000000 -1.000000
v 0.379985 -1.000000 4.415254
v 0.379985 3.233770 -1.000000
v 0.379984 2.734836 4.415254
v 0.379985 3.233770 1.707627
v 0.379985 -1.751630 1.707627
v 0.379985 3.233770 3.061440
v 0.379985 -1.751630 3.061440
v 0.379985 -1.000000 0.353813
v 0.379985 3.233770 0.353813
v 0.379985 0.867418 -1.000000
v 0.379985 0.867418 4.415254
v 3.139955 -1.000000 0.021105
v 3.139955 -1.000000 5.353558
v 3.139955 3.233770 -1.000000
v 3.139954 2.734836 4.415254
v 3.115282 -1.272379 1.369158
v 3.139955 2.190698 1.215439
v 3.115282 -1.272379 2.722971
v 3.139955 1.834195 2.160839
v 3.139955 3.233770 0.353814
v 3.139955 -1.000000 0.353813
v 3.139955 0.867418 6.222040
v 3.139955 0.867418 0.021105
v 4.519939 1.801127 -1.000000
v 4.519939 1.801127 4.415254
v -1.087974 1.407568 4.332435
v -1.000000 1.801127 -1.000000
v 1.759970 1.801127 -1.478682
v 1.759969 1.801127 5.283736
v -0.452773 1.801127 1.707627
v 5.277399 1.801127 1.707627
v -1.643709 1.407568 3.365155
v 5.277399 1.801127 3.061440
v 4.519939 1.801127 0.353814
v -0.257029 1.801127 0.353813
v 0.379985 1.801127 -1.478682
v 0.379984 1.801127 4.415254
v 3.139955 1.801127 -1.478682
v 3.139954 1.801127 5.283736
vn 0.0383 -0.8484 0.5280
vn -0.2924 0.8955 0.3356
vn 0.7845 0.4338 0.4432
vn -0.2334 0.1987 0.9519
vn -0.9894 -0.0995 0.1053
vn -0.2331 -0.1722 -0.9571
vn 0.0000 0.0000 -1.0000
vn 0.0000 0.6811 0.7322
vn -0.1442 0.8854 -0.4420
vn 0.2558 -0.9392 0.2290
vn 0.2244 -0.8239 -0.5205
vn 0.0453 0.6711 0.7400
vn -0.9805 0.0759 -0.1814
vn 0.9080 0.2568 -0.3309
vn 0.0000 1.0000 0.0000
vn -0.1912 -0.9337 -0.3028
vn -0.7769 0.4906 0.3946
vn 0.4783 -0.8782 0.0000
vn -0.0503 0.9869 0.1530
vn 0.9576 0.1258 -0.2592
vn -0.1519 0.9725 0.1767
vn -0.2049 -0.9706 -0.1265
vn -0.1369 -0.9762 -0.1685
vn 0.9277 0.3074 -0.2120
vn 0.0000 -1.0000 0.0000
vn -0.8805 -0.4566 -0.1273
vn -0.9211 0.3665 -0.1318
vn 0.6831 -0.3201 -0.6565
vn 0.8107 -0.2109 0.5461
vn -0.9172 -0.0654 0.3931
vn 0.9411 -0.2448 -0.2331
vn -0.9749 0.1939 -0.1097
vn 0.0000 -0.4217 0.9067
vn 0.0000 -0.8489 -0.5285
vn -0.1657 -0.2449 -0.9553
vn -0.9730 0.1877 -0.1340
vn 0.0315 -0.1641 0.9859
vn 0.8610 -0.2240 0.4566
vn -0.6958 -0.1627 0.6996
vn 0.2461 -0.7048 -0.6653
vn -0.1970 -0.9804 -0.0000
vn 0.7121 0.7021 0.0000
vn -0.1522 -0.7901 -0.5938
vn 0.4107 0.8100 0.4187
vn 0.5948 0.0000 -0.8039
vn -0.2744 0.4055 0.8719
vn 0.4484 0.8842 -0.1312
vn -0.1775 -0.8985 0.4015
vn -0.1265 -0.6410 -0.7571
vn 0.6247 -0.2530 0.7387
vn 0.0691 -0.8766 -0.4761
vn 0.4897 0.8520 -0.1852
vn -0.2629 0.9640 0.0394
vn -0.1591 -0.9858 -0.0536
vn 0.0575 0.7999 0.5973
vn -0.0236 -0.9508 -0.3090
vn -0.1139 -0.9617 0.2493
vn -0.2032 0.9600 -0.1926
vn 0.3882 0.5738 0.7211
vn -0.4047 -0.0931 -0.9097
vn 0.5565 0.4841 0.6752
vn 0.4376 0.4215 -0.7942
vn -0.6547 0.3394 0.6754
vn 0.0000 0.3169 -0.9485
vn -0.3683 0.3547 -0.8594
vn -0.8639 0.4900 -0.1162
vn 0.6851 0.6910 -0.2307
vn 0.8870 0.3522 0.2987
vn -0.8800 0.3219 0.3492
vn 0.7428 0.6612 -0.1047
vn -0.8657 0.1100 -0.4883
vn 0.0000 0.7088 0.7054
vn -0.9047 0.3308 0.2684
vn 0.0181 0.1993 0.9798
vn 0.9034 0.2462 0.3511
usemtl Material
s off
f 50//1 44//1 3//1 22//1
f 49//2 23//2 7//2 46//2
f 76//3 20//3 6//3 68//3
f 80//4 46//4 7//4 69//4
f 78//5 26//5 8//5 70//5
f 53//6 43//6 4//6 34//6
f 66//7 55//7 9//7 35//7
f 82//8 58//8 12//8 72//8
f 62//9 21//9 12//9 58//9
f 61//10 56//10 10//10 24//10
f 64//11 59//11 18//11 27//11
f 63//12 30//12 17//12 60//12
f 75//13 23//13 16//13 73//13
f 77//14 29//14 15//14 74//14
f 52//15 26//15 16//15 47//15
f 51//16 48//16 14//16 25//16
f 69//17 7//17 23//17 75//17
f 59//18 61//18 24//18 18//18
f 60//19 17//19 21//19 62//19
f 74//20 15//20 20//20 76//20
f 47//21 16//21 23//21 49//21
f 48//22 50//22 22//22 14//22
f 43//23 51//23 25//23 4//23
f 45//15 8//15 26//15 52//15
f 67//24 5//24 29//24 77//24
f 57//15 11//15 30//15 63//15
f 55//25 64//25 27//25 9//25
f 73//26 16//26 26//26 78//26
f 14//27 37//27 42//27 25//27
f 1//28 31//28 41//28 28//28
f 13//29 38//29 40//29 19//29
f 3//30 33//30 39//30 22//30
f 28//31 41//31 38//31 13//31
f 22//32 39//32 37//32 14//32
f 56//33 65//33 36//33 10//33
f 81//34 66//34 35//34 71//34
f 79//35 53//35 34//35 70//35
f 25//36 42//36 34//36 4//36
f 44//37 54//37 33//37 3//37
f 19//38 40//38 32//38 2//38
f 10//39 36//39 54//39 44//39
f 71//40 35//40 53//40 79//40
f 11//15 45//15 52//15 30//15
f 9//25 27//25 51//25 43//25
f 18//41 24//41 50//41 48//41
f 17//42 47//42 49//42 21//42
f 27//43 18//43 48//43 51//43
f 30//44 52//44 47//44 17//44
f 35//45 9//45 43//45 53//45
f 72//46 12//46 46//46 80//46
f 21//47 49//47 46//47 12//47
f 24//48 10//48 44//48 50//48
f 67//49 31//49 66//49 81//49
f 2//50 32//50 65//50 56//50
f 1//51 28//51 64//51 55//51
f 5//52 57//52 63//52 29//52
f 15//53 60//53 62//53 20//53
f 13//54 19//54 61//54 59//54
f 29//55 63//55 60//55 15//55
f 28//56 13//56 59//56 64//56
f 19//57 2//57 56//57 61//57
f 20//58 62//58 58//58 6//58
f 68//59 6//59 58//59 82//59
f 31//60 1//60 55//60 66//60
f 32//61 68//61 82//61 65//61
f 5//62 67//62 81//62 57//62
f 36//63 72//63 80//63 54//63
f 11//64 71//64 79//64 45//64
f 45//65 79//65 70//65 8//65
f 57//64 81//64 71//64 11//64
f 37//66 73//66 78//66 42//66
f 31//67 67//67 77//67 41//67
f 38//68 74//68 76//68 40//68
f 33//69 69//69 75//69 39//69
f 41//70 77//70 74//70 38//70
f 39//71 75//71 73//71 37//71
f 65//72 82//72 72//72 36//72
f 42//73 78//73 70//73 34//73
f 54//74 80//74 69//74 33//74
f 40//75 76//75 68//75 32//75
