# Blender v2.79 (sub 0) OBJ File: 'tall_coral.blend'
# www.blender.org
mtllib tall_coral.mtl
o Cube
v 0.760915 -1.000000 -0.716895
v 0.756877 -1.000000 0.757622
v -0.708742 -1.000000 0.672007
v -0.646221 -1.000000 -0.754539
v 0.760916 1.000000 -0.716895
v 0.756876 1.000000 0.757622
v -0.708742 1.000000 0.672006
v -0.646221 1.000000 -0.754538
v 1.000000 -1.000000 0.000000
v -1.000000 -1.000000 -0.000000
v 1.000000 1.000000 0.000001
v -1.000000 1.000000 -0.000000
v 0.000000 -1.000000 -1.000000
v 0.000000 -1.000000 1.000000
v 0.000000 1.000000 -1.000000
v -0.000001 1.000000 1.000000
v 2.615737 4.906582 0.000001
v 0.000000 -1.000000 -0.000000
v 2.615737 3.676996 0.000001
v 2.372613 3.676996 0.757622
v 1.615737 3.676996 -1.000000
v 0.969516 3.676996 -0.754538
v 1.615736 3.676996 1.000000
v 0.906995 3.676996 0.672006
v 0.615737 3.676996 -0.000000
v 2.376653 3.676996 -0.716895
v -0.283502 9.598062 0.000001
v 2.372613 4.906582 0.757622
v 1.615737 4.906582 -1.000000
v 0.969516 4.906582 -0.754538
v 1.615736 4.906582 1.000000
v 0.906995 4.906582 0.672006
v 0.615737 4.906582 -0.000000
v 2.376653 4.906582 -0.716895
v -0.283502 10.344087 0.000001
v -0.526625 9.598062 0.757622
v -1.283501 9.598062 -1.000000
v -1.929723 9.598062 -0.754538
v -1.283502 9.598062 1.000000
v -1.992244 9.598062 0.672006
v -2.283502 9.598062 -0.000000
v -0.522586 9.598062 -0.716895
v 3.799392 15.622818 0.000001
v -0.526625 10.344087 0.757622
v -1.283501 10.344087 -1.000000
v -1.929723 10.344087 -0.754538
v -1.283502 10.344087 1.000000
v -1.992244 10.344087 0.672006
v -2.283502 10.344087 -0.000000
v -0.522586 10.344087 -0.716895
v 3.799392 16.931856 0.000001
v 3.556269 15.622818 0.757622
v 2.799392 15.622818 -1.000000
v 2.153171 15.622818 -0.754538
v 2.799392 15.622818 1.000000
v 2.090650 15.622818 0.672006
v 1.799392 15.622818 -0.000000
v 3.560308 15.622818 -0.716895
v -0.499062 20.708757 0.000001
v 3.556269 16.931856 0.757622
v 2.799392 16.931856 -1.000000
v 2.153171 16.931856 -0.754538
v 2.799392 16.931856 1.000000
v 2.090650 16.931856 0.672006
v 1.799392 16.931856 -0.000000
v 3.560308 16.931856 -0.716895
v -4.835860 -1.000000 -0.056500
v -0.742185 20.708757 0.757622
v -1.499061 20.708757 -1.000000
v -2.145283 20.708757 -0.754538
v -1.499062 20.708757 1.000000
v -2.207804 20.708757 0.672006
v -2.499062 20.708757 -0.000000
v -0.738146 20.708757 -0.716895
v -1.499062 20.708757 0.000000
v -4.482080 -1.000000 -0.811038
v -4.544601 -1.000000 0.615507
v -4.544602 1.000000 0.615507
v -4.482081 1.000000 -0.811038
v -4.835860 1.000000 -0.056500
v -3.716174 1.000000 0.633737
v -3.306892 -1.000000 0.633737
v -3.367013 1.000000 -0.038269
v -3.598150 -1.000000 -0.038269
v -3.653653 1.000000 -0.792807
v -3.244371 -1.000000 -0.792808
v -3.716174 2.752630 0.633737
v -4.544602 2.752630 0.615507
v -4.835860 2.752630 -0.056500
v -4.482081 2.752630 -0.811038
v -3.367013 2.752630 -0.038269
v -3.653653 2.752630 -0.792807
v -3.716174 3.484633 0.633737
v -4.544602 3.484632 0.615507
v -4.835860 3.484632 -0.056500
v -4.482081 3.484632 -0.811038
v -3.367013 3.484633 -0.038269
v -3.653653 3.484633 -0.792807
v -8.045791 7.582593 0.633737
v -8.874218 7.582592 0.615507
v -9.165476 7.582592 -0.056500
v -8.811697 7.582592 -0.811038
v -7.696630 7.582593 -0.038269
v -7.983270 7.582593 -0.792807
v -8.045791 8.524789 0.633737
v -8.874218 8.524788 0.615507
v -9.165476 8.524788 -0.056500
v -8.811697 8.524788 -0.811038
v -7.696630 8.524789 -0.038269
v -7.983270 8.524789 -0.792807
v -5.246252 11.781670 0.633737
v -6.074679 11.781669 0.615506
v -6.365937 11.781669 -0.056500
v -6.012158 11.781669 -0.811038
v -4.897091 11.781670 -0.038269
v -5.183731 11.781670 -0.792807
v -5.246253 12.341545 0.633737
v -6.074680 12.341544 0.615506
v -6.365938 12.341544 -0.056500
v -6.012159 12.341544 -0.811038
v -4.897091 12.341545 -0.038269
v -5.183732 12.341545 -0.792807
v -3.169765 15.636205 0.671988
v -3.998192 15.636204 0.653757
v -4.289450 15.636204 -0.018249
v -3.935671 15.636204 -0.772787
v -2.820604 15.636205 -0.000019
v -3.107244 15.636205 -0.754557
v -3.169765 16.432014 0.671988
v -3.998193 16.432013 0.653757
v -4.289451 16.432013 -0.018249
v -3.935672 16.432013 -0.772787
v -2.820604 16.432014 -0.000019
v -3.107244 16.432014 -0.754557
v -8.408960 21.682985 0.777754
v -9.237389 21.682983 0.759524
v -9.528646 21.682983 0.087517
v -9.174868 21.682983 -0.667021
v -8.059799 21.682985 0.105748
v -8.346439 21.682985 -0.648790
v -8.408962 22.895836 0.777754
v -9.237391 22.895834 0.759524
v -9.528648 22.895834 0.087517
v -9.174870 22.895834 -0.667021
v -8.059801 22.895836 0.105748
v -8.346441 22.895836 -0.648790
v 5.765037 -0.999999 -2.008200
v 5.521914 -0.999999 -1.250579
v 5.525952 -0.999999 -2.725096
v 5.525952 1.000000 -2.725095
v 5.521913 1.000000 -1.250578
v 5.765037 1.000000 -2.008200
v 4.765037 -0.999999 -3.008200
v 4.765037 1.000000 -3.008200
v -0.241638 -1.000000 4.907627
v -0.950379 -1.000000 4.579634
v 0.515239 -1.000000 4.665249
v 0.515239 1.000000 4.665249
v -0.950380 1.000000 4.579634
v -0.241638 1.000000 4.907627
v 4.627764 -1.000000 -1.528902
v 4.388679 -1.000000 -2.245798
v 4.384640 1.000000 -0.771280
v 3.841626 1.028179 -1.099565
v 3.627764 1.000000 -2.528902
v 3.627764 -1.000000 -2.528902
v 4.384641 -1.000000 -0.771281
v 3.602542 1.028179 -1.816460
v -0.190808 1.000000 3.350097
v 0.566069 1.000000 3.843253
v 0.566070 -1.000000 3.843252
v -0.190807 -1.000000 4.085630
v -0.899550 1.000000 3.757637
v -0.899549 -1.000000 3.757637
v -0.190808 1.960658 3.350097
v -0.241638 1.960658 4.907627
v -0.950380 1.960658 4.579634
v 0.515239 1.960658 4.665249
v -0.899550 1.960658 3.757637
v 0.566069 1.960658 3.843253
v 2.962179 4.630105 3.350097
v 2.911349 4.630105 4.907627
v 2.202607 4.630105 4.579634
v 3.668226 4.630105 4.665249
v 2.253438 4.630105 3.757637
v 3.719056 4.630105 3.843253
v 2.962179 6.516071 3.350097
v 2.911349 6.516071 4.907627
v 2.202607 6.516071 4.579634
v 3.668226 6.516071 4.665249
v 2.253438 6.516071 3.757637
v 3.719056 6.516071 3.843253
v -1.804201 11.037653 3.350097
v -1.855031 11.037653 4.907627
v -2.563773 11.037653 4.579634
v -1.098154 11.037653 4.665249
v -2.512942 11.037653 3.757637
v -1.047324 11.037653 3.843253
v -1.804201 12.545177 3.350097
v -1.855031 12.545177 4.907627
v -2.563773 12.545177 4.579634
v -1.098154 12.545177 4.665249
v -2.512942 12.545177 3.757637
v -1.047324 12.545177 3.843253
v -0.064442 17.022924 6.805404
v -0.115273 17.022924 8.362934
v -0.824014 17.022924 8.034941
v 0.641604 17.022924 8.120556
v -0.773184 17.022924 7.212944
v 0.692435 17.022924 7.298560
v -0.064442 17.988375 6.805404
v -0.115273 17.988375 8.362934
v -0.824014 17.988375 8.034941
v 0.641604 17.988375 8.120556
v -0.773184 17.988375 7.212944
v 0.692435 17.988375 7.298560
v 2.761142 23.098057 4.337941
v 2.710311 23.098057 5.895472
v 2.001570 23.098057 5.567478
v 3.467188 23.098057 5.653093
v 2.052400 23.098057 4.745481
v 3.518018 23.098057 4.831097
v 2.077560 12.579191 -6.444466
v 1.834436 12.579191 -5.686844
v 1.838476 12.579191 -7.161361
v 1.077560 12.579191 -7.444466
v 0.697163 12.579191 -5.207546
v -0.059713 12.579191 -6.965168
v -0.084935 12.607370 -6.252726
v 0.154149 12.607370 -5.535830
v 2.094354 14.342107 -6.450175
v 1.851231 14.342107 -5.692554
v 1.855270 14.342107 -7.167070
v 1.094354 14.342107 -7.450175
v 0.713957 14.342107 -5.213255
v -0.042919 14.342107 -6.970878
v -0.068141 14.370286 -6.258435
v 0.170943 14.370286 -5.541540
v 8.988721 19.156528 -2.949614
v 8.745597 19.156528 -2.191992
v 8.749637 19.156528 -3.666509
v 7.988721 19.156528 -3.949614
v 7.608324 19.156528 -1.712694
v 6.851448 19.156528 -3.470316
v 6.826226 19.184708 -2.757874
v 7.065310 19.184708 -2.040978
v 9.005908 20.960659 -2.955457
v 8.762784 20.960659 -2.197835
v 8.766824 20.960659 -3.672352
v 8.005908 20.960659 -3.955457
v 7.625511 20.960659 -1.718537
v 6.868634 20.960659 -3.476159
v 6.843412 20.988838 -2.763717
v 7.082497 20.988838 -2.046822
vn 0.0000 -1.0000 0.0000
vn -0.3884 0.0000 -0.9215
vn -0.3551 0.0000 -0.9348
vn -0.0176 -0.0018 0.9998
vn 0.3050 0.0000 0.9524
vn -0.9054 -0.0000 -0.4245
vn -0.9175 -0.0000 0.3977
vn 0.0176 0.0018 -0.9998
vn 0.0137 0.0014 -0.9999
vn -0.0000 1.0000 -0.0000
vn -0.0137 -0.0014 0.9999
vn 0.9522 0.0000 0.3056
vn 0.9486 -0.0000 -0.3164
vn 0.3487 0.0000 -0.9372
vn 0.3884 -0.0000 0.9215
vn -0.4200 -0.0000 0.9075
vn 0.5459 0.0000 -0.8378
vn -0.9981 -0.0000 -0.0617
vn 0.9981 0.0000 0.0617
vn -0.0088 1.0000 0.0029
vn -0.0122 0.9997 -0.0193
vn 0.0056 0.9997 0.0244
vn -0.6456 0.7626 -0.0399
vn -0.4296 0.5074 -0.7470
vn -0.4985 0.0000 -0.8669
vn -0.3762 0.4444 0.8130
vn 0.4588 -0.5419 -0.7042
vn 0.6456 -0.7626 0.0399
vn 0.2869 -0.3389 0.8960
vn -0.8027 0.4845 0.3479
vn -0.9502 -0.3108 -0.0213
vn 0.8256 -0.4983 0.2649
vn -0.4071 0.2457 0.8797
vn 0.2999 -0.1810 0.9366
vn 0.3412 -0.2060 -0.9171
vn -0.7945 0.4795 -0.3725
vn -0.3472 0.2096 -0.9141
vn 0.8232 -0.4969 -0.2746
vn 0.8206 0.5071 0.2633
vn -0.4065 -0.2512 0.8784
vn 0.8184 0.5057 -0.2729
vn 0.2997 0.1852 0.9359
vn 0.3409 0.2107 -0.9162
vn -0.7982 -0.4932 0.3459
vn -0.7901 -0.4883 -0.3705
vn -0.3468 -0.2143 -0.9131
vn 0.9348 0.0000 -0.3551
vn 0.8874 0.0000 0.4611
vn 0.0220 0.0000 -0.9998
vn -0.0220 0.0000 0.9998
vn 0.0220 0.0232 -0.9995
vn 0.6474 0.6840 0.3364
vn -0.6588 -0.6960 0.2855
vn -0.0220 -0.0232 0.9995
vn 0.6651 0.7027 -0.2527
vn -0.6543 -0.6913 -0.3068
vn 0.3384 -0.2407 -0.9097
vn 0.3506 0.4303 0.8318
vn -0.6876 -0.7248 -0.0425
vn -0.4413 -0.4652 -0.7674
vn -0.3840 -0.4048 0.8298
vn 0.4732 0.4988 -0.7262
vn 0.6876 0.7248 0.0425
vn 0.2903 0.3061 0.9067
vn -0.5041 0.1643 0.8479
vn 0.9335 0.1780 -0.3113
vn -0.9335 -0.1780 0.3113
vn 0.8778 0.3875 0.2817
vn -0.3506 -0.4303 -0.8318
vn -0.3424 0.2648 -0.9015
vn -0.7416 0.5736 -0.3477
vn -0.7483 0.5787 0.3243
vn 0.3367 -0.2604 -0.9049
vn 0.2968 -0.2296 0.9269
vn 0.7648 -0.5916 -0.2551
vn -0.3994 0.3090 0.8631
vn 0.7667 -0.5930 0.2460
vn 0.0220 -0.0189 -0.9996
vn 0.7056 -0.6065 0.3666
vn -0.7204 0.6193 0.3122
vn -0.0220 0.0189 0.9996
vn 0.7287 -0.6264 -0.2768
vn -0.7145 0.6142 -0.3350
vn -0.7959 0.4976 0.3449
vn 0.0220 -0.0023 -0.9998
vn -0.0220 0.0023 0.9998
vn 0.8069 -0.5050 -0.3065
vn -0.7847 0.4988 -0.3679
vn 0.7727 -0.4917 0.4015
vn -0.9151 0.3992 -0.0566
vn -0.3775 0.6532 -0.6564
vn -0.3700 -0.4732 0.7995
vn 0.5007 0.3985 -0.7685
vn 0.9151 -0.3992 0.0566
vn 0.2320 -0.6491 0.7244
vn -0.3884 0.0007 -0.9215
vn -0.9993 0.0094 -0.0357
vn 0.9486 -0.0101 -0.3164
vn 0.6292 -0.7484 -0.2098
vn 0.2455 -0.7750 0.5824
vn -0.6292 0.7484 0.2098
vn 0.3487 -0.0064 -0.9372
vn 0.9521 -0.0081 0.3055
vn -0.5171 0.0077 0.8559
vn -0.9486 0.0101 0.3164
vn 0.3884 -0.0007 0.9215
vn -0.5537 0.8311 -0.0525
vn -0.2455 0.7750 -0.5824
vn 0.3431 0.1792 -0.9221
vn 0.5079 -0.8458 0.1630
vn -0.5100 0.1101 0.8531
vn 0.6457 0.7349 0.2072
vn -0.3789 -0.4313 0.8188
vn 0.6446 0.7336 -0.2150
vn 0.2881 0.3279 0.8997
vn 0.3241 0.3689 -0.8711
vn -0.6346 -0.7222 0.2750
vn -0.6306 -0.7176 -0.2956
vn -0.3292 -0.3747 -0.8667
vn -0.0220 -0.0421 0.9989
vn -0.6741 -0.6784 0.2922
vn 0.6812 0.6849 -0.2588
vn -0.6747 -0.6668 -0.3164
vn 0.6675 0.6590 0.3468
vn 0.0220 0.0421 -0.9989
vn -0.3488 0.5569 0.7538
vn -0.8848 0.4628 -0.0547
vn 0.4459 -0.5770 -0.6843
vn 0.8848 -0.4628 0.0547
vn 0.2928 0.2796 0.9144
vn -0.4935 -0.1415 -0.8582
vn 0.0186 0.9996 0.0208
vn -0.0027 0.9997 -0.0263
vn 0.0127 0.9999 -0.0042
usemtl Material
s off
f 18//1 14//1 3//1 10//1
f 166//2 165//2 154//2 153//2
f 172//1 171//1 157//1 155//1
f 15//3 13//3 4//3 8//3
f 82//4 81//4 78//4 77//4
f 13//1 18//1 10//1 4//1
f 1//1 9//1 18//1 13//1
f 161//1 162//1 149//1 147//1
f 160//5 158//5 178//5 176//5
f 9//1 2//1 14//1 18//1
f 67//6 80//6 79//6 76//6
f 77//7 78//7 80//7 67//7
f 84//1 82//1 77//1 67//1
f 85//8 86//8 76//8 79//8
f 86//1 84//1 67//1 76//1
f 4//1 10//1 84//1 86//1
f 8//9 4//9 86//9 85//9
f 12//10 8//10 85//10 83//10
f 10//1 3//1 82//1 84//1
f 3//11 7//11 81//11 82//11
f 7//10 12//10 83//10 81//10
f 147//12 152//12 151//12 148//12
f 149//13 150//13 152//13 147//13
f 150//14 149//14 153//14 154//14
f 163//15 167//15 148//15 151//15
f 167//1 161//1 147//1 148//1
f 162//1 166//1 153//1 149//1
f 155//16 160//16 159//16 156//16
f 157//5 158//5 160//5 155//5
f 170//17 169//17 175//17 180//17
f 173//18 174//18 156//18 159//18
f 171//19 170//19 158//19 157//19
f 174//1 172//1 155//1 156//1
f 5//20 11//20 164//20 168//20
f 1//1 13//1 166//1 162//1
f 2//1 9//1 161//1 167//1
f 15//21 5//21 168//21 165//21
f 6//15 2//15 167//15 163//15
f 9//1 1//1 162//1 161//1
f 11//22 6//22 163//22 164//22
f 13//2 15//2 165//2 166//2
f 3//1 14//1 172//1 174//1
f 2//19 6//19 170//19 171//19
f 7//18 3//18 174//18 173//18
f 16//10 7//10 173//10 169//10
f 6//10 16//10 169//10 170//10
f 14//1 2//1 171//1 172//1
f 179//23 177//23 183//23 185//23
f 175//24 179//24 185//24 181//24
f 159//16 160//16 176//16 177//16
f 173//18 159//18 177//18 179//18
f 169//25 173//25 179//25 175//25
f 158//19 170//19 180//19 178//19
f 177//26 176//26 182//26 183//26
f 180//27 175//27 181//27 186//27
f 178//28 180//28 186//28 184//28
f 176//29 178//29 184//29 182//29
usemtl Material.001
f 12//30 7//30 24//30 25//30
f 80//7 78//7 88//7 89//7
f 165//31 168//31 229//31 228//31
f 6//32 11//32 19//32 20//32
f 7//33 16//33 23//33 24//33
f 16//34 6//34 20//34 23//34
f 25//7 24//7 32//7 33//7
f 26//14 21//14 29//14 34//14
f 20//12 19//12 17//12 28//12
f 24//16 23//16 31//16 32//16
f 5//35 15//35 21//35 26//35
f 8//36 12//36 25//36 22//36
f 15//37 8//37 22//37 21//37
f 11//38 5//38 26//38 19//38
f 28//39 17//39 27//39 36//39
f 32//40 31//40 39//40 40//40
f 17//41 34//41 42//41 27//41
f 31//42 28//42 36//42 39//42
f 22//6 25//6 33//6 30//6
f 21//3 22//3 30//3 29//3
f 23//5 20//5 28//5 31//5
f 19//13 26//13 34//13 17//13
f 27//13 42//13 50//13 35//13
f 39//5 36//5 44//5 47//5
f 37//3 38//3 46//3 45//3
f 38//6 41//6 49//6 46//6
f 34//43 29//43 37//43 42//43
f 33//44 32//44 40//44 41//44
f 30//45 33//45 41//45 38//45
f 29//46 30//46 38//46 37//46
f 40//16 39//16 47//16 48//16
f 36//12 27//12 35//12 44//12
f 42//14 37//14 45//14 50//14
f 41//7 40//7 48//7 49//7
f 83//47 85//47 92//47 91//47
f 90//6 89//6 95//6 96//6
f 91//47 92//47 98//47 97//47
f 79//6 80//6 89//6 90//6
f 81//48 83//48 91//48 87//48
f 85//49 79//49 90//49 92//49
f 78//50 81//50 87//50 88//50
f 98//51 96//51 102//51 104//51
f 93//52 97//52 103//52 99//52
f 87//48 91//48 97//48 93//48
f 92//49 90//49 96//49 98//49
f 89//7 88//7 94//7 95//7
f 88//50 87//50 93//50 94//50
f 95//53 94//53 100//53 101//53
f 94//54 93//54 99//54 100//54
f 97//55 98//55 104//55 103//55
f 96//56 95//56 101//56 102//56
f 150//57 154//57 226//57 225//57
f 163//58 151//58 224//58 227//58
f 184//19 186//19 192//19 190//19
f 186//17 181//17 187//17 192//17
f 191//59 189//59 195//59 197//59
f 187//60 191//60 197//60 193//60
f 182//5 184//5 190//5 188//5
f 181//25 185//25 191//25 187//25
f 185//18 183//18 189//18 191//18
f 183//16 182//16 188//16 189//16
f 189//61 188//61 194//61 195//61
f 192//62 187//62 193//62 198//62
f 190//63 192//63 198//63 196//63
f 188//64 190//64 196//64 194//64
f 164//65 163//65 227//65 230//65
f 152//66 150//66 225//66 223//66
f 168//67 164//67 230//67 229//67
f 151//68 152//68 223//68 224//68
f 154//69 165//69 228//69 226//69
usemtl Material.002
f 45//70 46//70 54//70 53//70
f 46//71 49//71 57//71 54//71
f 49//72 48//72 56//72 57//72
f 50//73 45//73 53//73 58//73
f 47//74 44//74 52//74 55//74
f 35//75 50//75 58//75 43//75
f 48//76 47//76 55//76 56//76
f 44//77 35//77 43//77 52//77
f 102//6 101//6 107//6 108//6
f 103//47 104//47 110//47 109//47
f 110//78 108//78 114//78 116//78
f 105//79 109//79 115//79 111//79
f 99//48 103//48 109//48 105//48
f 104//49 102//49 108//49 110//49
f 101//7 100//7 106//7 107//7
f 100//50 99//50 105//50 106//50
f 114//6 113//6 119//6 120//6
f 115//47 116//47 122//47 121//47
f 107//80 106//80 112//80 113//80
f 106//81 105//81 111//81 112//81
f 109//82 110//82 116//82 115//82
f 108//83 107//83 113//83 114//83
f 119//84 118//84 124//84 125//84
f 122//85 120//85 126//85 128//85
f 111//48 115//48 121//48 117//48
f 116//49 114//49 120//49 122//49
f 113//7 112//7 118//7 119//7
f 112//50 111//50 117//50 118//50
f 123//48 127//48 133//48 129//48
f 126//6 125//6 131//6 132//6
f 118//86 117//86 123//86 124//86
f 121//87 122//87 128//87 127//87
f 120//88 119//88 125//88 126//88
f 117//89 121//89 127//89 123//89
f 128//49 126//49 132//49 134//49
f 125//7 124//7 130//7 131//7
f 124//50 123//50 129//50 130//50
f 127//47 128//47 134//47 133//47
f 196//19 198//19 204//19 202//19
f 198//17 193//17 199//17 204//17
f 203//90 201//90 207//90 209//90
f 199//91 203//91 209//91 205//91
f 194//5 196//5 202//5 200//5
f 193//25 197//25 203//25 199//25
f 197//18 195//18 201//18 203//18
f 195//16 194//16 200//16 201//16
f 201//92 200//92 206//92 207//92
f 204//93 199//93 205//93 210//93
f 202//94 204//94 210//94 208//94
f 200//95 202//95 208//95 206//95
f 226//96 228//96 236//96 234//96
f 228//97 229//97 237//97 236//97
f 223//98 225//98 233//98 231//98
f 231//99 233//99 241//99 239//99
f 235//100 232//100 240//100 243//100
f 237//101 238//101 246//101 245//101
f 225//102 226//102 234//102 233//102
f 224//103 223//103 231//103 232//103
f 230//104 227//104 235//104 238//104
f 229//105 230//105 238//105 237//105
f 227//106 224//106 232//106 235//106
f 236//107 237//107 245//107 244//107
f 234//108 236//108 244//108 242//108
f 233//109 234//109 242//109 241//109
f 232//110 231//110 239//110 240//110
f 238//111 235//111 243//111 246//111
usemtl Material.003
f 58//14 53//14 61//14 66//14
f 52//12 43//12 51//12 60//12
f 56//16 55//16 63//16 64//16
f 43//13 58//13 66//13 51//13
f 60//112 51//112 59//112 68//112
f 64//113 63//113 71//113 72//113
f 51//114 66//114 74//114 59//114
f 63//115 60//115 68//115 71//115
f 57//7 56//7 64//7 65//7
f 54//6 57//6 65//6 62//6
f 53//3 54//3 62//3 61//3
f 55//5 52//5 60//5 63//5
f 75//10 73//10 72//10 71//10
f 69//10 70//10 73//10 75//10
f 74//10 69//10 75//10 59//10
f 59//10 75//10 71//10 68//10
f 66//116 61//116 69//116 74//116
f 65//117 64//117 72//117 73//117
f 62//118 65//118 73//118 70//118
f 61//119 62//119 70//119 69//119
f 130//120 129//120 135//120 136//120
f 131//121 130//121 136//121 137//121
f 135//48 139//48 145//48 141//48
f 138//6 137//6 143//6 144//6
f 133//122 134//122 140//122 139//122
f 132//123 131//123 137//123 138//123
f 129//124 133//124 139//124 135//124
f 134//125 132//125 138//125 140//125
f 141//10 145//10 143//10 142//10
f 145//10 146//10 144//10 143//10
f 140//49 138//49 144//49 146//49
f 137//7 136//7 142//7 143//7
f 136//50 135//50 141//50 142//50
f 139//47 140//47 146//47 145//47
f 206//5 208//5 214//5 212//5
f 208//19 210//19 216//19 214//19
f 213//126 212//126 218//126 219//126
f 215//127 213//127 219//127 221//127
f 205//25 209//25 215//25 211//25
f 209//18 207//18 213//18 215//18
f 207//16 206//16 212//16 213//16
f 210//17 205//17 211//17 216//17
f 222//10 217//10 218//10 220//10
f 217//10 221//10 219//10 218//10
f 216//128 211//128 217//128 222//128
f 214//129 216//129 222//129 220//129
f 212//130 214//130 220//130 218//130
f 211//131 215//131 221//131 217//131
f 246//104 243//104 251//104 254//104
f 240//103 239//103 247//103 248//103
f 241//102 242//102 250//102 249//102
f 254//132 251//132 248//132 247//132
f 252//133 253//133 249//133 250//133
f 253//134 254//134 247//134 249//134
f 245//105 246//105 254//105 253//105
f 243//106 240//106 248//106 251//106
f 239//98 241//98 249//98 247//98
f 244//97 245//97 253//97 252//97
f 242//96 244//96 252//96 250//96
